<svg width="800" height="800" viewBox="0 0 24 24" fill="none" xmlns="http://www.w3.org/2000/svg"><path d="M7 10.074c.471-.03 1.053-.074 1.8-.074h6.4c.747 0 1.329.045 1.8.074m-10 0c-.588.036-1.006.116-1.362.298a3 3 0 00-1.311 1.311C4 12.325 4 13.165 4 14.845v1.4c0 1.68 0 2.52.327 3.162a3 3 0 001.311 1.31c.642.328 1.482.328 3.162.328h6.4c1.68 0 2.52 0 3.162-.327a3 3 0 001.311-1.311c.327-.642.327-1.482.327-3.162v-1.4c0-1.68 0-2.52-.327-3.162a3 3 0 00-1.311-1.311c-.356-.182-.774-.262-1.362-.298m-10 0v-2.03a5 5 0 0110 0v2.03M10 18l.286-1M14 18l-.286-1m-3.428 0l.545-1.908c.349-1.222.524-1.833.793-1.986a.76.76 0 01.752 0c.27.153.444.764.793 1.986L13.714 17m-3.428 0h3.428" stroke="#000" stroke-width="2" stroke-linecap="round" stroke-linejoin="round"/></svg>